<svg height="512pt" viewBox="0 -22 512.0004 512" width="512pt" xmlns="http://www.w3.org/2000/svg"><path d="m250.304688 172.621094-163.578126 284h327.15625l-134.570312-233.640625zm0 0" fill="#006cc4"/><path d="m413.882812 456.621094h87.152344l-128.539062-223.164063-43.578125 75.652344zm0 0" fill="#64c5f2"/><path d="m325.007812 10.449219h-69.007812v57.511719h69.007812l-19.898437-28.753907zm0 0" fill="#ff4a2b"/><path d="m212.164062 387.742188h-.136718c-5.773438 0-10.449219-4.675782-10.449219-10.445313 0-5.773437 4.675781-10.449219 10.449219-10.449219h.136718c5.773438 0 10.449219 4.675782 10.449219 10.449219 0 5.769531-4.675781 10.445313-10.449219 10.445313zm0 0"/><path d="m253.183594 198.554688c1.929687 3.371093 5.453125 5.257812 9.078125 5.257812 1.761719 0 3.546875-.445312 5.183593-1.382812 5.007813-2.867188 6.742188-9.25 3.875-14.257813l-.039062-.0625c-2.867188-5.007813-9.230469-6.710937-14.242188-3.84375-5.003906 2.867187-6.722656 9.28125-3.855468 14.289063zm0 0"/><path d="m510.605469 451.40625-162.492188-282.117188c-1.863281-3.238281-5.316406-5.234374-9.054687-5.234374-3.738282 0-7.1875 1.996093-9.054688 5.234374l-34.78125 60.386719-6.859375-11.910156c-2.878906-5-9.269531-6.71875-14.269531-3.839844-3.359375 1.933594-5.238281 5.453125-5.234375 9.070313 0 1.769531.453125 3.558594 1.394531 5.199218l125.550782 217.976563h-367.277344l33.652344-58.429687h115.640624c5.773438 0 10.449219-4.675782 10.449219-10.445313 0-5.773437-4.675781-10.449219-10.449219-10.449219h-103.605468l137.949218-239.507812 24.324219 42.230468c2.882813 5 9.269531 6.71875 14.269531 3.839844 3.359376-1.9375 5.238282-5.457031 5.234376-9.074218 0-1.765626-.449219-3.554688-1.394532-5.199219l-31.980468-55.523438v-25.203125h102.390624c3.886719 0 7.449219-2.15625 9.253907-5.597656 1.804687-3.441406 1.546875-7.597656-.660157-10.796875l-15.785156-22.808594 15.78125-22.8125c2.210938-3.195312 2.46875-7.355469.664063-10.796875-1.804688-3.441406-5.371094-5.597656-9.253907-5.597656h-112.839843c-5.773438 0-10.449219 4.679688-10.449219 10.449219v93.160156l-200.324219 347.796875c-.929687 1.617188-1.39843725 3.417969-1.394531 5.222656.00390625 1.804688.46875 3.605469 1.402344 5.222656 1.867187 3.230469 5.316406 5.21875 9.046875 5.21875h491.101562c3.730469 0 7.179688-1.988281 9.046875-5.222656 1.867188-3.226562 1.871094-7.210937.007813-10.441406zm-287.988281-430.507812h82.453124l-8.550781 12.363281c-2.476562 3.578125-2.476562 8.3125 0 11.890625l8.550781 12.359375h-82.453124zm197.304687 425.273437-112.640625-195.5625 31.777344-55.167969 144.414062 250.730469zm0 0"/></svg>